<mxfile host="Electron" agent="Mozilla/5.0 (Macintosh; Intel Mac OS X 10_15_7) AppleWebKit/537.36 (KHTML, like Gecko) draw.io/26.1.1 Chrome/132.0.6834.210 Electron/34.3.3 Safari/537.36" version="26.1.1">
  <diagram name="PÃ gina-1" id="oy8qX8HP7gqxA2Tt80Pt">
    <mxGraphModel dx="1013" dy="999" grid="1" gridSize="5" guides="1" tooltips="1" connect="1" arrows="1" fold="1" page="1" pageScale="1" pageWidth="827" pageHeight="1169" math="0" shadow="0">
      <root>
        <mxCell id="0" />
        <mxCell id="1" parent="0" />
        <mxCell id="RuAcS0BkeenV3SlfDcj3-4" value="AIRPORT" style="whiteSpace=wrap;html=1;align=center;fontSize=10;" parent="1" vertex="1">
          <mxGeometry x="140" y="140" width="94" height="40" as="geometry" />
        </mxCell>
        <mxCell id="RuAcS0BkeenV3SlfDcj3-1" value="COUNTRY" style="whiteSpace=wrap;html=1;align=center;fontSize=10;" parent="1" vertex="1">
          <mxGeometry x="10" y="10" width="100" height="40" as="geometry" />
        </mxCell>
        <mxCell id="RuAcS0BkeenV3SlfDcj3-3" style="edgeStyle=orthogonalEdgeStyle;rounded=0;orthogonalLoop=1;jettySize=auto;html=1;endArrow=ERone;endFill=0;" parent="1" source="RuAcS0BkeenV3SlfDcj3-2" target="RuAcS0BkeenV3SlfDcj3-1" edge="1">
          <mxGeometry relative="1" as="geometry">
            <Array as="points">
              <mxPoint x="187" y="30" />
            </Array>
          </mxGeometry>
        </mxCell>
        <mxCell id="jBT95FDjYHQ6EW9C_Phd-5" value="1" style="edgeLabel;html=1;align=center;verticalAlign=bottom;resizable=0;points=[];labelPosition=center;verticalLabelPosition=top;labelBackgroundColor=none;" parent="RuAcS0BkeenV3SlfDcj3-3" vertex="1" connectable="0">
          <mxGeometry x="0.8207" relative="1" as="geometry">
            <mxPoint as="offset" />
          </mxGeometry>
        </mxCell>
        <mxCell id="RuAcS0BkeenV3SlfDcj3-2" value="&lt;span style=&quot;text-align: left;&quot;&gt;IS LOCATED IN&lt;/span&gt;" style="shape=rhombus;perimeter=rhombusPerimeter;html=1;align=left;fontSize=10;labelPosition=right;verticalLabelPosition=middle;verticalAlign=middle;" parent="1" vertex="1">
          <mxGeometry x="172" y="80" width="30" height="30" as="geometry" />
        </mxCell>
        <mxCell id="RuAcS0BkeenV3SlfDcj3-6" style="edgeStyle=orthogonalEdgeStyle;rounded=0;orthogonalLoop=1;jettySize=auto;html=1;entryX=0.5;entryY=0;entryDx=0;entryDy=0;endArrow=oval;startFill=0;startArrow=none;curved=0;endFill=0;exitX=0.5;exitY=1;exitDx=0;exitDy=0;" parent="1" source="RuAcS0BkeenV3SlfDcj3-2" target="RuAcS0BkeenV3SlfDcj3-4" edge="1">
          <mxGeometry relative="1" as="geometry">
            <mxPoint x="320" y="70" as="sourcePoint" />
          </mxGeometry>
        </mxCell>
        <mxCell id="jBT95FDjYHQ6EW9C_Phd-6" value="N" style="edgeLabel;html=1;align=left;verticalAlign=middle;resizable=0;points=[];labelPosition=right;verticalLabelPosition=middle;labelBackgroundColor=none;" parent="RuAcS0BkeenV3SlfDcj3-6" vertex="1" connectable="0">
          <mxGeometry x="-0.2769" y="2" relative="1" as="geometry">
            <mxPoint x="-2" y="2" as="offset" />
          </mxGeometry>
        </mxCell>
        <mxCell id="RuAcS0BkeenV3SlfDcj3-8" value="CITY" style="whiteSpace=wrap;html=1;align=center;fontSize=10;" parent="1" vertex="1">
          <mxGeometry x="10" y="140" width="100" height="40" as="geometry" />
        </mxCell>
        <mxCell id="RuAcS0BkeenV3SlfDcj3-9" value="&lt;span style=&quot;text-align: left;&quot;&gt;BELONGS TO&lt;/span&gt;" style="shape=rhombus;perimeter=rhombusPerimeter;html=1;align=left;fontSize=10;labelPosition=right;verticalLabelPosition=middle;verticalAlign=middle;" parent="1" vertex="1">
          <mxGeometry x="45" y="80" width="30" height="30" as="geometry" />
        </mxCell>
        <mxCell id="RuAcS0BkeenV3SlfDcj3-10" style="edgeStyle=orthogonalEdgeStyle;rounded=0;orthogonalLoop=1;jettySize=auto;html=1;endArrow=ERone;endFill=0;entryX=0.5;entryY=1;entryDx=0;entryDy=0;exitX=0.5;exitY=0;exitDx=0;exitDy=0;" parent="1" source="RuAcS0BkeenV3SlfDcj3-9" target="RuAcS0BkeenV3SlfDcj3-1" edge="1">
          <mxGeometry relative="1" as="geometry">
            <mxPoint x="244" y="40" as="sourcePoint" />
            <mxPoint x="120" y="40" as="targetPoint" />
          </mxGeometry>
        </mxCell>
        <mxCell id="jBT95FDjYHQ6EW9C_Phd-3" value="1" style="edgeLabel;html=1;align=left;verticalAlign=middle;resizable=0;points=[];labelPosition=right;verticalLabelPosition=middle;labelBackgroundColor=none;" parent="RuAcS0BkeenV3SlfDcj3-10" vertex="1" connectable="0">
          <mxGeometry x="0.0718" y="-3" relative="1" as="geometry">
            <mxPoint x="-2" as="offset" />
          </mxGeometry>
        </mxCell>
        <mxCell id="RuAcS0BkeenV3SlfDcj3-11" style="edgeStyle=orthogonalEdgeStyle;rounded=0;orthogonalLoop=1;jettySize=auto;html=1;endArrow=ERone;endFill=0;entryX=0.5;entryY=0;entryDx=0;entryDy=0;exitX=0.5;exitY=1;exitDx=0;exitDy=0;" parent="1" source="RuAcS0BkeenV3SlfDcj3-9" target="RuAcS0BkeenV3SlfDcj3-8" edge="1">
          <mxGeometry relative="1" as="geometry">
            <mxPoint x="70" y="100" as="sourcePoint" />
            <mxPoint x="70" y="60" as="targetPoint" />
          </mxGeometry>
        </mxCell>
        <mxCell id="jBT95FDjYHQ6EW9C_Phd-4" value="N" style="edgeLabel;html=1;align=left;verticalAlign=middle;resizable=0;points=[];labelPosition=right;verticalLabelPosition=middle;labelBackgroundColor=none;" parent="RuAcS0BkeenV3SlfDcj3-11" vertex="1" connectable="0">
          <mxGeometry x="-0.1231" y="1" relative="1" as="geometry">
            <mxPoint as="offset" />
          </mxGeometry>
        </mxCell>
        <mxCell id="RuAcS0BkeenV3SlfDcj3-12" value="ROUTE" style="whiteSpace=wrap;html=1;align=center;fontSize=10;" parent="1" vertex="1">
          <mxGeometry x="315.86" y="140" width="94" height="40" as="geometry" />
        </mxCell>
        <mxCell id="RuAcS0BkeenV3SlfDcj3-13" value="&lt;span&gt;IS SOURCE&lt;/span&gt;" style="shape=rhombus;perimeter=rhombusPerimeter;html=1;align=center;fontSize=10;labelPosition=center;verticalLabelPosition=top;verticalAlign=bottom;" parent="1" vertex="1">
          <mxGeometry x="265" y="135" width="20" height="20" as="geometry" />
        </mxCell>
        <mxCell id="RuAcS0BkeenV3SlfDcj3-14" value="&lt;span style=&quot;font-size: 9px;&quot;&gt;IS DESTINATION&lt;/span&gt;" style="shape=rhombus;perimeter=rhombusPerimeter;html=1;align=center;labelPosition=center;verticalLabelPosition=bottom;verticalAlign=top;" parent="1" vertex="1">
          <mxGeometry x="265" y="165" width="20" height="20" as="geometry" />
        </mxCell>
        <mxCell id="RuAcS0BkeenV3SlfDcj3-15" style="edgeStyle=orthogonalEdgeStyle;rounded=0;orthogonalLoop=1;jettySize=auto;html=1;endArrow=oval;startFill=0;startArrow=none;curved=0;endFill=0;exitX=1;exitY=0.5;exitDx=0;exitDy=0;entryX=-0.014;entryY=0.144;entryDx=0;entryDy=0;entryPerimeter=0;" parent="1" source="RuAcS0BkeenV3SlfDcj3-13" target="RuAcS0BkeenV3SlfDcj3-12" edge="1">
          <mxGeometry relative="1" as="geometry">
            <mxPoint x="192" y="115" as="sourcePoint" />
            <mxPoint x="339" y="145" as="targetPoint" />
          </mxGeometry>
        </mxCell>
        <mxCell id="jBT95FDjYHQ6EW9C_Phd-10" value="N" style="edgeLabel;html=1;align=center;verticalAlign=bottom;resizable=0;points=[];labelPosition=center;verticalLabelPosition=top;labelBackgroundColor=none;" parent="RuAcS0BkeenV3SlfDcj3-15" vertex="1" connectable="0">
          <mxGeometry x="0.3255" y="2" relative="1" as="geometry">
            <mxPoint y="2" as="offset" />
          </mxGeometry>
        </mxCell>
        <mxCell id="RuAcS0BkeenV3SlfDcj3-16" style="edgeStyle=orthogonalEdgeStyle;rounded=0;orthogonalLoop=1;jettySize=auto;html=1;endArrow=oval;startFill=0;startArrow=none;curved=0;endFill=0;exitX=1;exitY=0.5;exitDx=0;exitDy=0;entryX=-0.012;entryY=0.867;entryDx=0;entryDy=0;entryPerimeter=0;" parent="1" source="RuAcS0BkeenV3SlfDcj3-14" target="RuAcS0BkeenV3SlfDcj3-12" edge="1">
          <mxGeometry relative="1" as="geometry">
            <mxPoint x="295" y="150" as="sourcePoint" />
            <mxPoint x="325" y="175" as="targetPoint" />
          </mxGeometry>
        </mxCell>
        <mxCell id="jBT95FDjYHQ6EW9C_Phd-9" value="N" style="edgeLabel;html=1;align=center;verticalAlign=bottom;resizable=0;points=[];labelPosition=center;verticalLabelPosition=top;labelBackgroundColor=none;" parent="RuAcS0BkeenV3SlfDcj3-16" vertex="1" connectable="0">
          <mxGeometry x="0.3749" y="1" relative="1" as="geometry">
            <mxPoint x="-1" y="1" as="offset" />
          </mxGeometry>
        </mxCell>
        <mxCell id="RuAcS0BkeenV3SlfDcj3-21" style="edgeStyle=orthogonalEdgeStyle;rounded=0;orthogonalLoop=1;jettySize=auto;html=1;exitX=0;exitY=0.5;exitDx=0;exitDy=0;entryX=0.994;entryY=0.867;entryDx=0;entryDy=0;entryPerimeter=0;endArrow=ERone;endFill=0;" parent="1" source="RuAcS0BkeenV3SlfDcj3-14" target="RuAcS0BkeenV3SlfDcj3-4" edge="1">
          <mxGeometry relative="1" as="geometry" />
        </mxCell>
        <mxCell id="jBT95FDjYHQ6EW9C_Phd-8" value="1" style="edgeLabel;html=1;align=center;verticalAlign=bottom;resizable=0;points=[];labelPosition=center;verticalLabelPosition=top;labelBackgroundColor=none;" parent="RuAcS0BkeenV3SlfDcj3-21" vertex="1" connectable="0">
          <mxGeometry x="0.112" y="-2" relative="1" as="geometry">
            <mxPoint x="-2" y="3" as="offset" />
          </mxGeometry>
        </mxCell>
        <mxCell id="RuAcS0BkeenV3SlfDcj3-22" style="edgeStyle=orthogonalEdgeStyle;rounded=0;orthogonalLoop=1;jettySize=auto;html=1;exitX=0;exitY=0.5;exitDx=0;exitDy=0;entryX=0.991;entryY=0.122;entryDx=0;entryDy=0;entryPerimeter=0;endArrow=ERone;endFill=0;" parent="1" source="RuAcS0BkeenV3SlfDcj3-13" target="RuAcS0BkeenV3SlfDcj3-4" edge="1">
          <mxGeometry relative="1" as="geometry" />
        </mxCell>
        <mxCell id="jBT95FDjYHQ6EW9C_Phd-7" value="1" style="edgeLabel;html=1;align=center;verticalAlign=bottom;resizable=0;points=[];labelPosition=center;verticalLabelPosition=top;labelBackgroundColor=none;" parent="RuAcS0BkeenV3SlfDcj3-22" vertex="1" connectable="0">
          <mxGeometry x="0.2379" relative="1" as="geometry">
            <mxPoint as="offset" />
          </mxGeometry>
        </mxCell>
        <mxCell id="RuAcS0BkeenV3SlfDcj3-23" value="&lt;span style=&quot;text-align: left;&quot;&gt;IS OPERATED BY&lt;/span&gt;" style="shape=rhombus;perimeter=rhombusPerimeter;html=1;align=left;labelPosition=right;verticalLabelPosition=middle;verticalAlign=middle;fontSize=10;" parent="1" vertex="1">
          <mxGeometry x="347.86" y="80" width="30" height="30" as="geometry" />
        </mxCell>
        <mxCell id="RuAcS0BkeenV3SlfDcj3-24" style="edgeStyle=orthogonalEdgeStyle;rounded=0;orthogonalLoop=1;jettySize=auto;html=1;endArrow=oval;startFill=0;startArrow=none;curved=0;endFill=0;exitX=0.5;exitY=1;exitDx=0;exitDy=0;entryX=0.5;entryY=0;entryDx=0;entryDy=0;" parent="1" source="RuAcS0BkeenV3SlfDcj3-23" target="RuAcS0BkeenV3SlfDcj3-12" edge="1">
          <mxGeometry relative="1" as="geometry">
            <mxPoint x="275.86" y="150" as="sourcePoint" />
            <mxPoint x="319.86" y="151" as="targetPoint" />
          </mxGeometry>
        </mxCell>
        <mxCell id="jBT95FDjYHQ6EW9C_Phd-2" value="N" style="edgeLabel;html=1;align=left;verticalAlign=middle;resizable=0;points=[];labelPosition=right;verticalLabelPosition=middle;labelBackgroundColor=none;" parent="RuAcS0BkeenV3SlfDcj3-24" vertex="1" connectable="0">
          <mxGeometry x="-0.1136" y="1" relative="1" as="geometry">
            <mxPoint as="offset" />
          </mxGeometry>
        </mxCell>
        <mxCell id="RuAcS0BkeenV3SlfDcj3-25" value="AIRLINE" style="whiteSpace=wrap;html=1;align=center;fontSize=10;" parent="1" vertex="1">
          <mxGeometry x="315.86" y="10" width="100" height="40" as="geometry" />
        </mxCell>
        <mxCell id="RuAcS0BkeenV3SlfDcj3-27" style="edgeStyle=orthogonalEdgeStyle;rounded=0;orthogonalLoop=1;jettySize=auto;html=1;exitX=0.5;exitY=0;exitDx=0;exitDy=0;entryX=0.466;entryY=0.983;entryDx=0;entryDy=0;entryPerimeter=0;endArrow=ERone;endFill=0;" parent="1" source="RuAcS0BkeenV3SlfDcj3-23" target="RuAcS0BkeenV3SlfDcj3-25" edge="1">
          <mxGeometry relative="1" as="geometry" />
        </mxCell>
        <mxCell id="jBT95FDjYHQ6EW9C_Phd-1" value="1" style="edgeLabel;html=1;align=left;verticalAlign=middle;resizable=0;points=[];labelPosition=right;verticalLabelPosition=middle;labelBackgroundColor=none;" parent="RuAcS0BkeenV3SlfDcj3-27" vertex="1" connectable="0">
          <mxGeometry x="0.108" relative="1" as="geometry">
            <mxPoint as="offset" />
          </mxGeometry>
        </mxCell>
        <mxCell id="RuAcS0BkeenV3SlfDcj3-28" value="FLIGHT" style="whiteSpace=wrap;html=1;align=center;fontSize=10;" parent="1" vertex="1">
          <mxGeometry x="315.86" y="270" width="94" height="40" as="geometry" />
        </mxCell>
        <mxCell id="RuAcS0BkeenV3SlfDcj3-30" style="edgeStyle=orthogonalEdgeStyle;rounded=0;orthogonalLoop=1;jettySize=auto;html=1;endArrow=oval;endFill=0;" parent="1" source="RuAcS0BkeenV3SlfDcj3-29" target="RuAcS0BkeenV3SlfDcj3-12" edge="1">
          <mxGeometry relative="1" as="geometry" />
        </mxCell>
        <mxCell id="jBT95FDjYHQ6EW9C_Phd-11" value="N" style="edgeLabel;html=1;align=left;verticalAlign=middle;resizable=0;points=[];labelPosition=right;verticalLabelPosition=middle;labelBackgroundColor=none;" parent="RuAcS0BkeenV3SlfDcj3-30" vertex="1" connectable="0">
          <mxGeometry x="-0.5133" y="-1" relative="1" as="geometry">
            <mxPoint as="offset" />
          </mxGeometry>
        </mxCell>
        <mxCell id="RuAcS0BkeenV3SlfDcj3-31" style="edgeStyle=orthogonalEdgeStyle;rounded=0;orthogonalLoop=1;jettySize=auto;html=1;endArrow=oval;endFill=0;entryX=0.5;entryY=0;entryDx=0;entryDy=0;" parent="1" source="RuAcS0BkeenV3SlfDcj3-29" target="RuAcS0BkeenV3SlfDcj3-28" edge="1">
          <mxGeometry relative="1" as="geometry">
            <mxPoint x="362.86" y="270" as="targetPoint" />
          </mxGeometry>
        </mxCell>
        <mxCell id="jBT95FDjYHQ6EW9C_Phd-12" value="1" style="edgeLabel;html=1;align=left;verticalAlign=middle;resizable=0;points=[];labelPosition=right;verticalLabelPosition=middle;labelBackgroundColor=none;" parent="RuAcS0BkeenV3SlfDcj3-31" vertex="1" connectable="0">
          <mxGeometry x="-0.1085" y="1" relative="1" as="geometry">
            <mxPoint x="2" as="offset" />
          </mxGeometry>
        </mxCell>
        <mxCell id="RuAcS0BkeenV3SlfDcj3-29" value="&lt;span style=&quot;text-align: left;&quot;&gt;OPERATES IN&lt;/span&gt;" style="shape=rhombus;perimeter=rhombusPerimeter;html=1;align=left;labelPosition=right;verticalLabelPosition=middle;verticalAlign=middle;fontSize=10;" parent="1" vertex="1">
          <mxGeometry x="347.86" y="210" width="30" height="30" as="geometry" />
        </mxCell>
        <mxCell id="RuAcS0BkeenV3SlfDcj3-32" value="&lt;span style=&quot;text-align: left;&quot;&gt;FLIES IN&lt;/span&gt;" style="shape=rhombus;perimeter=rhombusPerimeter;html=1;align=center;labelPosition=center;verticalLabelPosition=bottom;verticalAlign=top;fontSize=10;" parent="1" vertex="1">
          <mxGeometry x="440.86" y="145" width="30" height="30" as="geometry" />
        </mxCell>
        <mxCell id="RuAcS0BkeenV3SlfDcj3-33" value="PLANE" style="whiteSpace=wrap;html=1;align=center;fontSize=10;" parent="1" vertex="1">
          <mxGeometry x="500.86" y="140" width="100" height="40" as="geometry" />
        </mxCell>
        <mxCell id="RuAcS0BkeenV3SlfDcj3-34" style="edgeStyle=orthogonalEdgeStyle;rounded=0;orthogonalLoop=1;jettySize=auto;html=1;endArrow=oval;startFill=0;startArrow=none;curved=0;endFill=0;entryX=1;entryY=0.5;entryDx=0;entryDy=0;exitX=0.5;exitY=0;exitDx=0;exitDy=0;" parent="1" source="RuAcS0BkeenV3SlfDcj3-35" target="RuAcS0BkeenV3SlfDcj3-25" edge="1">
          <mxGeometry relative="1" as="geometry">
            <mxPoint x="475.86" y="105" as="sourcePoint" />
            <mxPoint x="367.86" y="145" as="targetPoint" />
          </mxGeometry>
        </mxCell>
        <mxCell id="jBT95FDjYHQ6EW9C_Phd-16" value="1" style="edgeLabel;html=1;align=center;verticalAlign=bottom;resizable=0;points=[];labelPosition=center;verticalLabelPosition=top;labelBackgroundColor=none;" parent="RuAcS0BkeenV3SlfDcj3-34" vertex="1" connectable="0">
          <mxGeometry x="0.8732" relative="1" as="geometry">
            <mxPoint as="offset" />
          </mxGeometry>
        </mxCell>
        <mxCell id="RuAcS0BkeenV3SlfDcj3-35" value="&lt;span style=&quot;text-align: left;&quot;&gt;HAS LINES&lt;/span&gt;" style="shape=rhombus;perimeter=rhombusPerimeter;html=1;align=left;labelPosition=right;verticalLabelPosition=middle;verticalAlign=middle;fontSize=10;" parent="1" vertex="1">
          <mxGeometry x="535.86" y="80" width="30" height="30" as="geometry" />
        </mxCell>
        <mxCell id="RuAcS0BkeenV3SlfDcj3-36" style="edgeStyle=orthogonalEdgeStyle;rounded=0;orthogonalLoop=1;jettySize=auto;html=1;endArrow=oval;startFill=0;startArrow=none;curved=0;endFill=0;entryX=1;entryY=0.5;entryDx=0;entryDy=0;exitX=0;exitY=0.5;exitDx=0;exitDy=0;" parent="1" source="RuAcS0BkeenV3SlfDcj3-32" target="RuAcS0BkeenV3SlfDcj3-12" edge="1">
          <mxGeometry relative="1" as="geometry">
            <mxPoint x="575.86" y="85" as="sourcePoint" />
            <mxPoint x="420.86" y="35" as="targetPoint" />
          </mxGeometry>
        </mxCell>
        <mxCell id="jBT95FDjYHQ6EW9C_Phd-13" value="1" style="edgeLabel;html=1;align=center;verticalAlign=bottom;resizable=0;points=[];labelPosition=center;verticalLabelPosition=top;labelBackgroundColor=none;" parent="RuAcS0BkeenV3SlfDcj3-36" vertex="1" connectable="0">
          <mxGeometry x="0.2503" relative="1" as="geometry">
            <mxPoint as="offset" />
          </mxGeometry>
        </mxCell>
        <mxCell id="RuAcS0BkeenV3SlfDcj3-37" style="edgeStyle=orthogonalEdgeStyle;rounded=0;orthogonalLoop=1;jettySize=auto;html=1;endArrow=ERone;endFill=0;entryX=0;entryY=0.5;entryDx=0;entryDy=0;exitX=1;exitY=0.5;exitDx=0;exitDy=0;" parent="1" source="RuAcS0BkeenV3SlfDcj3-32" target="RuAcS0BkeenV3SlfDcj3-33" edge="1">
          <mxGeometry relative="1" as="geometry">
            <mxPoint x="15.860000000000001" y="85" as="sourcePoint" />
            <mxPoint x="15.860000000000001" y="55" as="targetPoint" />
          </mxGeometry>
        </mxCell>
        <mxCell id="jBT95FDjYHQ6EW9C_Phd-14" value="N" style="edgeLabel;html=1;align=center;verticalAlign=bottom;resizable=0;points=[];labelPosition=center;verticalLabelPosition=top;labelBackgroundColor=none;" parent="RuAcS0BkeenV3SlfDcj3-37" vertex="1" connectable="0">
          <mxGeometry x="0.25" y="-1" relative="1" as="geometry">
            <mxPoint as="offset" />
          </mxGeometry>
        </mxCell>
        <mxCell id="RuAcS0BkeenV3SlfDcj3-38" style="edgeStyle=orthogonalEdgeStyle;rounded=0;orthogonalLoop=1;jettySize=auto;html=1;endArrow=ERone;endFill=0;entryX=0.5;entryY=0;entryDx=0;entryDy=0;exitX=0.5;exitY=1;exitDx=0;exitDy=0;" parent="1" source="RuAcS0BkeenV3SlfDcj3-35" target="RuAcS0BkeenV3SlfDcj3-33" edge="1">
          <mxGeometry relative="1" as="geometry">
            <mxPoint x="485.86" y="165" as="sourcePoint" />
            <mxPoint x="525.86" y="165" as="targetPoint" />
          </mxGeometry>
        </mxCell>
        <mxCell id="jBT95FDjYHQ6EW9C_Phd-15" value="N" style="edgeLabel;html=1;align=left;verticalAlign=middle;resizable=0;points=[];labelPosition=right;verticalLabelPosition=middle;labelBackgroundColor=none;" parent="RuAcS0BkeenV3SlfDcj3-38" vertex="1" connectable="0">
          <mxGeometry x="-0.1361" y="1" relative="1" as="geometry">
            <mxPoint as="offset" />
          </mxGeometry>
        </mxCell>
        <mxCell id="L-4mFKqatusIU8dMlo0q-1" value="1" style="ellipse;whiteSpace=wrap;html=1;aspect=fixed;fillColor=#f8cecc;strokeColor=#b85450;" parent="1" vertex="1">
          <mxGeometry x="202" y="55" width="25" height="25" as="geometry" />
        </mxCell>
        <mxCell id="L-4mFKqatusIU8dMlo0q-3" value="2" style="ellipse;whiteSpace=wrap;html=1;aspect=fixed;fillColor=#f8cecc;strokeColor=#b85450;" parent="1" vertex="1">
          <mxGeometry x="285" y="17.5" width="25" height="25" as="geometry" />
        </mxCell>
        <mxCell id="L-4mFKqatusIU8dMlo0q-4" value="3" style="ellipse;whiteSpace=wrap;html=1;aspect=fixed;fillColor=#f8cecc;strokeColor=#b85450;" parent="1" vertex="1">
          <mxGeometry x="280" y="277.5" width="25" height="25" as="geometry" />
        </mxCell>
      </root>
    </mxGraphModel>
  </diagram>
</mxfile>
